<mxfile host="Electron" agent="Mozilla/5.0 (Windows NT 10.0; Win64; x64) AppleWebKit/537.36 (KHTML, like Gecko) draw.io/28.1.2 Chrome/138.0.7204.243 Electron/37.4.0 Safari/537.36" version="28.1.2" pages="5">
  <diagram id="D8kfNDh2xh5PO_O7ufFX" name="states-1">
    <mxGraphModel dx="2472" dy="1570" grid="1" gridSize="10" guides="1" tooltips="1" connect="1" arrows="1" fold="1" page="1" pageScale="1" pageWidth="850" pageHeight="1100" math="0" shadow="0">
      <root>
        <mxCell id="0" />
        <mxCell id="1" parent="0" />
        <mxCell id="rzPouIs4uU39w_d6DX8F-15" style="edgeStyle=orthogonalEdgeStyle;rounded=0;orthogonalLoop=1;jettySize=auto;html=1;" parent="1" source="rzPouIs4uU39w_d6DX8F-3" target="rzPouIs4uU39w_d6DX8F-5" edge="1">
          <mxGeometry relative="1" as="geometry" />
        </mxCell>
        <mxCell id="rzPouIs4uU39w_d6DX8F-22" value="&lt;font style=&quot;font-size: 14px;&quot;&gt;button press&lt;/font&gt;" style="edgeLabel;html=1;align=center;verticalAlign=middle;resizable=0;points=[];" parent="rzPouIs4uU39w_d6DX8F-15" vertex="1" connectable="0">
          <mxGeometry x="0.4385" relative="1" as="geometry">
            <mxPoint x="12" y="-30" as="offset" />
          </mxGeometry>
        </mxCell>
        <mxCell id="rzPouIs4uU39w_d6DX8F-16" style="edgeStyle=orthogonalEdgeStyle;rounded=0;orthogonalLoop=1;jettySize=auto;html=1;" parent="1" source="rzPouIs4uU39w_d6DX8F-3" target="rzPouIs4uU39w_d6DX8F-7" edge="1">
          <mxGeometry relative="1" as="geometry" />
        </mxCell>
        <mxCell id="rzPouIs4uU39w_d6DX8F-39" value="&lt;span style=&quot;font-size: 14px;&quot;&gt;box&amp;nbsp;&lt;/span&gt;&lt;span style=&quot;font-size: 14px;&quot;&gt;press&lt;/span&gt;" style="edgeLabel;html=1;align=center;verticalAlign=middle;resizable=0;points=[];" parent="rzPouIs4uU39w_d6DX8F-16" vertex="1" connectable="0">
          <mxGeometry x="0.5012" y="-2" relative="1" as="geometry">
            <mxPoint x="2" y="-12" as="offset" />
          </mxGeometry>
        </mxCell>
        <mxCell id="rzPouIs4uU39w_d6DX8F-3" value="&lt;span style=&quot;text-align: left;&quot;&gt;START&lt;/span&gt;" style="ellipse;whiteSpace=wrap;html=1;" parent="1" vertex="1">
          <mxGeometry x="-570" y="-270" width="120" height="80" as="geometry" />
        </mxCell>
        <mxCell id="rzPouIs4uU39w_d6DX8F-17" style="edgeStyle=orthogonalEdgeStyle;rounded=0;orthogonalLoop=1;jettySize=auto;html=1;" parent="1" source="rzPouIs4uU39w_d6DX8F-5" target="rzPouIs4uU39w_d6DX8F-8" edge="1">
          <mxGeometry relative="1" as="geometry" />
        </mxCell>
        <mxCell id="rzPouIs4uU39w_d6DX8F-23" value="&lt;span style=&quot;font-size: 14px;&quot;&gt;box press&lt;/span&gt;" style="edgeLabel;html=1;align=center;verticalAlign=middle;resizable=0;points=[];" parent="rzPouIs4uU39w_d6DX8F-17" vertex="1" connectable="0">
          <mxGeometry x="-0.1139" relative="1" as="geometry">
            <mxPoint as="offset" />
          </mxGeometry>
        </mxCell>
        <mxCell id="rzPouIs4uU39w_d6DX8F-5" value="&lt;span style=&quot;text-align: left;&quot;&gt;BUTTON_PRESS&lt;/span&gt;" style="ellipse;whiteSpace=wrap;html=1;" parent="1" vertex="1">
          <mxGeometry x="-295" y="-370" width="120" height="80" as="geometry" />
        </mxCell>
        <mxCell id="rzPouIs4uU39w_d6DX8F-6" value="&lt;span style=&quot;text-align: left;&quot;&gt;BUTTON_RELEASE&lt;/span&gt;" style="ellipse;whiteSpace=wrap;html=1;" parent="1" vertex="1">
          <mxGeometry x="-295" y="-655" width="120" height="80" as="geometry" />
        </mxCell>
        <mxCell id="9_x8Mevu7CmHlLAuYNtE-5" style="edgeStyle=orthogonalEdgeStyle;rounded=0;orthogonalLoop=1;jettySize=auto;html=1;" parent="1" source="rzPouIs4uU39w_d6DX8F-7" target="9_x8Mevu7CmHlLAuYNtE-1" edge="1">
          <mxGeometry relative="1" as="geometry" />
        </mxCell>
        <mxCell id="9_x8Mevu7CmHlLAuYNtE-8" value="&lt;span style=&quot;font-size: 14px;&quot;&gt;box move&lt;/span&gt;" style="edgeLabel;html=1;align=center;verticalAlign=middle;resizable=0;points=[];" parent="9_x8Mevu7CmHlLAuYNtE-5" vertex="1" connectable="0">
          <mxGeometry x="-0.2533" y="1" relative="1" as="geometry">
            <mxPoint as="offset" />
          </mxGeometry>
        </mxCell>
        <mxCell id="rzPouIs4uU39w_d6DX8F-7" value="&lt;span style=&quot;text-align: left;&quot;&gt;BOX_PRESS&lt;/span&gt;" style="ellipse;whiteSpace=wrap;html=1;" parent="1" vertex="1">
          <mxGeometry x="-770" y="-370" width="120" height="80" as="geometry" />
        </mxCell>
        <mxCell id="rzPouIs4uU39w_d6DX8F-18" style="edgeStyle=orthogonalEdgeStyle;rounded=0;orthogonalLoop=1;jettySize=auto;html=1;" parent="1" source="rzPouIs4uU39w_d6DX8F-8" target="rzPouIs4uU39w_d6DX8F-6" edge="1">
          <mxGeometry relative="1" as="geometry" />
        </mxCell>
        <mxCell id="rzPouIs4uU39w_d6DX8F-24" value="&lt;span style=&quot;font-size: 14px;&quot;&gt;button release&lt;/span&gt;" style="edgeLabel;html=1;align=center;verticalAlign=middle;resizable=0;points=[];" parent="rzPouIs4uU39w_d6DX8F-18" vertex="1" connectable="0">
          <mxGeometry x="-0.1646" y="1" relative="1" as="geometry">
            <mxPoint as="offset" />
          </mxGeometry>
        </mxCell>
        <mxCell id="rzPouIs4uU39w_d6DX8F-32" style="edgeStyle=orthogonalEdgeStyle;rounded=0;orthogonalLoop=1;jettySize=auto;html=1;entryX=0.958;entryY=0.694;entryDx=0;entryDy=0;entryPerimeter=0;exitX=0.963;exitY=0.61;exitDx=0;exitDy=0;exitPerimeter=0;" parent="1" source="rzPouIs4uU39w_d6DX8F-8" target="rzPouIs4uU39w_d6DX8F-8" edge="1">
          <mxGeometry relative="1" as="geometry">
            <mxPoint x="-130.00279144137016" y="-522" as="targetPoint" />
            <mxPoint x="-130.00279144137016" y="-542" as="sourcePoint" />
          </mxGeometry>
        </mxCell>
        <mxCell id="9_x8Mevu7CmHlLAuYNtE-18" style="edgeStyle=orthogonalEdgeStyle;rounded=0;orthogonalLoop=1;jettySize=auto;html=1;entryX=1;entryY=0.5;entryDx=0;entryDy=0;" parent="1" source="rzPouIs4uU39w_d6DX8F-8" target="9_x8Mevu7CmHlLAuYNtE-17" edge="1">
          <mxGeometry relative="1" as="geometry" />
        </mxCell>
        <mxCell id="9_x8Mevu7CmHlLAuYNtE-19" value="&lt;span style=&quot;font-size: 14px; background-color: rgb(236, 236, 236);&quot;&gt;button&amp;nbsp;&lt;/span&gt;&lt;div&gt;&lt;span style=&quot;font-size: 14px; background-color: rgb(236, 236, 236);&quot;&gt;move&lt;/span&gt;&lt;/div&gt;" style="edgeLabel;html=1;align=center;verticalAlign=middle;resizable=0;points=[];" parent="9_x8Mevu7CmHlLAuYNtE-18" vertex="1" connectable="0">
          <mxGeometry x="0.1158" y="2" relative="1" as="geometry">
            <mxPoint as="offset" />
          </mxGeometry>
        </mxCell>
        <mxCell id="rzPouIs4uU39w_d6DX8F-8" value="&lt;font style=&quot;font-size: 12px;&quot;&gt;&lt;span style=&quot;text-align: left;&quot;&gt;&lt;font style=&quot;&quot;&gt;BUTTON_&lt;/font&gt;&lt;/span&gt;&lt;span style=&quot;text-align: left;&quot;&gt;BOX_&lt;/span&gt;&lt;span style=&quot;text-align: left;&quot;&gt;&lt;font style=&quot;&quot;&gt;PRESS&lt;/font&gt;&lt;/span&gt;&lt;/font&gt;" style="ellipse;whiteSpace=wrap;html=1;" parent="1" vertex="1">
          <mxGeometry x="-305" y="-512" width="140" height="80" as="geometry" />
        </mxCell>
        <mxCell id="OtzuEFZkjY4ht1Tbtys4-3" style="edgeStyle=orthogonalEdgeStyle;rounded=0;orthogonalLoop=1;jettySize=auto;html=1;entryX=0.5;entryY=1;entryDx=0;entryDy=0;exitX=-0.008;exitY=0.6;exitDx=0;exitDy=0;exitPerimeter=0;" parent="1" source="rzPouIs4uU39w_d6DX8F-7" target="rzPouIs4uU39w_d6DX8F-3" edge="1">
          <mxGeometry relative="1" as="geometry">
            <Array as="points">
              <mxPoint x="-840" y="-322" />
              <mxPoint x="-840" y="-170" />
              <mxPoint x="-510" y="-170" />
            </Array>
          </mxGeometry>
        </mxCell>
        <mxCell id="9_x8Mevu7CmHlLAuYNtE-14" value="&lt;span style=&quot;font-size: 14px;&quot;&gt;box&amp;nbsp;&lt;/span&gt;&lt;span style=&quot;font-size: 14px;&quot;&gt;release&lt;/span&gt;" style="edgeLabel;html=1;align=center;verticalAlign=middle;resizable=0;points=[];" parent="OtzuEFZkjY4ht1Tbtys4-3" vertex="1" connectable="0">
          <mxGeometry x="-0.5008" relative="1" as="geometry">
            <mxPoint as="offset" />
          </mxGeometry>
        </mxCell>
        <mxCell id="OtzuEFZkjY4ht1Tbtys4-1" style="edgeStyle=orthogonalEdgeStyle;rounded=0;orthogonalLoop=1;jettySize=auto;html=1;entryX=0.5;entryY=1;entryDx=0;entryDy=0;exitX=1;exitY=0.5;exitDx=0;exitDy=0;" parent="1" source="rzPouIs4uU39w_d6DX8F-6" target="rzPouIs4uU39w_d6DX8F-3" edge="1">
          <mxGeometry relative="1" as="geometry">
            <Array as="points">
              <mxPoint x="-120" y="-615" />
              <mxPoint x="-120" y="-170" />
              <mxPoint x="-510" y="-170" />
            </Array>
          </mxGeometry>
        </mxCell>
        <mxCell id="9_x8Mevu7CmHlLAuYNtE-11" value="&lt;span style=&quot;font-size: 14px;&quot;&gt;box release&lt;/span&gt;" style="edgeLabel;html=1;align=center;verticalAlign=middle;resizable=0;points=[];" parent="OtzuEFZkjY4ht1Tbtys4-1" vertex="1" connectable="0">
          <mxGeometry x="-0.7596" y="2" relative="1" as="geometry">
            <mxPoint as="offset" />
          </mxGeometry>
        </mxCell>
        <mxCell id="9_x8Mevu7CmHlLAuYNtE-6" style="edgeStyle=orthogonalEdgeStyle;rounded=0;orthogonalLoop=1;jettySize=auto;html=1;exitX=0.5;exitY=0;exitDx=0;exitDy=0;entryX=0.5;entryY=1;entryDx=0;entryDy=0;" parent="1" source="9_x8Mevu7CmHlLAuYNtE-1" target="rzPouIs4uU39w_d6DX8F-3" edge="1">
          <mxGeometry relative="1" as="geometry">
            <mxPoint x="-660" y="-500" as="targetPoint" />
            <Array as="points">
              <mxPoint x="-710" y="-530" />
              <mxPoint x="-840" y="-530" />
              <mxPoint x="-840" y="-170" />
              <mxPoint x="-510" y="-170" />
            </Array>
          </mxGeometry>
        </mxCell>
        <mxCell id="9_x8Mevu7CmHlLAuYNtE-1" value="&lt;span style=&quot;text-align: left;&quot;&gt;&lt;font style=&quot;font-size: 11px;&quot;&gt;BOX_MOVE&lt;/font&gt;&lt;/span&gt;" style="ellipse;whiteSpace=wrap;html=1;" parent="1" vertex="1">
          <mxGeometry x="-770" y="-510" width="120" height="80" as="geometry" />
        </mxCell>
        <mxCell id="9_x8Mevu7CmHlLAuYNtE-4" style="edgeStyle=orthogonalEdgeStyle;rounded=0;orthogonalLoop=1;jettySize=auto;html=1;" parent="1" source="9_x8Mevu7CmHlLAuYNtE-1" target="9_x8Mevu7CmHlLAuYNtE-1" edge="1">
          <mxGeometry relative="1" as="geometry" />
        </mxCell>
        <mxCell id="9_x8Mevu7CmHlLAuYNtE-10" value="&lt;span style=&quot;color: rgb(0, 0, 0); font-family: Helvetica; font-size: 14px; font-style: normal; font-variant-ligatures: normal; font-variant-caps: normal; font-weight: 400; letter-spacing: normal; orphans: 2; text-align: center; text-indent: 0px; text-transform: none; widows: 2; word-spacing: 0px; -webkit-text-stroke-width: 0px; white-space: nowrap; background-color: rgb(255, 255, 255); text-decoration-thickness: initial; text-decoration-style: initial; text-decoration-color: initial; display: inline !important; float: none;&quot;&gt;box move&lt;/span&gt;" style="text;whiteSpace=wrap;html=1;" parent="1" vertex="1">
          <mxGeometry x="-620" y="-490" width="90" height="40" as="geometry" />
        </mxCell>
        <mxCell id="9_x8Mevu7CmHlLAuYNtE-13" value="&lt;span style=&quot;forced-color-adjust: none; color: rgb(0, 0, 0); font-family: Helvetica; font-style: normal; font-variant-ligatures: normal; font-variant-caps: normal; font-weight: 400; letter-spacing: normal; orphans: 2; text-align: center; text-indent: 0px; text-transform: none; widows: 2; word-spacing: 0px; -webkit-text-stroke-width: 0px; white-space: nowrap; text-decoration-thickness: initial; text-decoration-style: initial; text-decoration-color: initial; font-size: 14px;&quot;&gt;button move&lt;/span&gt;&lt;br style=&quot;forced-color-adjust: none; color: rgb(0, 0, 0); font-family: Helvetica; font-style: normal; font-variant-ligatures: normal; font-variant-caps: normal; font-weight: 400; letter-spacing: normal; orphans: 2; text-align: center; text-indent: 0px; text-transform: none; widows: 2; word-spacing: 0px; -webkit-text-stroke-width: 0px; white-space: nowrap; text-decoration-thickness: initial; text-decoration-style: initial; text-decoration-color: initial; font-size: 14px;&quot;&gt;&lt;span style=&quot;forced-color-adjust: none; color: rgb(0, 0, 0); font-family: Helvetica; font-style: normal; font-variant-ligatures: normal; font-variant-caps: normal; font-weight: 400; letter-spacing: normal; orphans: 2; text-align: center; text-indent: 0px; text-transform: none; widows: 2; word-spacing: 0px; -webkit-text-stroke-width: 0px; white-space: nowrap; text-decoration-thickness: initial; text-decoration-style: initial; text-decoration-color: initial; font-size: 14px;&quot;&gt;box move&lt;/span&gt;" style="text;whiteSpace=wrap;html=1;" parent="1" vertex="1">
          <mxGeometry x="-475" y="-410" width="80" height="40" as="geometry" />
        </mxCell>
        <mxCell id="9_x8Mevu7CmHlLAuYNtE-20" style="edgeStyle=orthogonalEdgeStyle;rounded=0;orthogonalLoop=1;jettySize=auto;html=1;exitX=0.5;exitY=0;exitDx=0;exitDy=0;entryX=0;entryY=0.5;entryDx=0;entryDy=0;" parent="1" source="9_x8Mevu7CmHlLAuYNtE-17" target="rzPouIs4uU39w_d6DX8F-6" edge="1">
          <mxGeometry relative="1" as="geometry" />
        </mxCell>
        <mxCell id="9_x8Mevu7CmHlLAuYNtE-21" value="&lt;span style=&quot;font-size: 14px;&quot;&gt;button release&lt;/span&gt;" style="edgeLabel;html=1;align=center;verticalAlign=middle;resizable=0;points=[];" parent="9_x8Mevu7CmHlLAuYNtE-20" vertex="1" connectable="0">
          <mxGeometry x="-0.6418" y="-2" relative="1" as="geometry">
            <mxPoint as="offset" />
          </mxGeometry>
        </mxCell>
        <mxCell id="9_x8Mevu7CmHlLAuYNtE-27" style="edgeStyle=orthogonalEdgeStyle;rounded=0;orthogonalLoop=1;jettySize=auto;html=1;" parent="1" source="9_x8Mevu7CmHlLAuYNtE-17" edge="1">
          <mxGeometry relative="1" as="geometry">
            <mxPoint x="-430" y="-430" as="targetPoint" />
          </mxGeometry>
        </mxCell>
        <mxCell id="9_x8Mevu7CmHlLAuYNtE-17" value="&lt;span style=&quot;text-align: left;&quot;&gt;&lt;font style=&quot;font-size: 11px;&quot;&gt;BUTTON_MOVE&lt;/font&gt;&lt;/span&gt;" style="ellipse;whiteSpace=wrap;html=1;" parent="1" vertex="1">
          <mxGeometry x="-520" y="-512" width="120" height="80" as="geometry" />
        </mxCell>
      </root>
    </mxGraphModel>
  </diagram>
  <diagram id="lTPi28UhbGAQwxX-qChw" name="n-buttons">
    <mxGraphModel dx="1665" dy="849" grid="1" gridSize="10" guides="1" tooltips="1" connect="1" arrows="1" fold="1" page="1" pageScale="1" pageWidth="850" pageHeight="1100" math="0" shadow="0">
      <root>
        <mxCell id="0" />
        <mxCell id="1" parent="0" />
        <mxCell id="P5bmcnCt_r2T0MBVYtTN-8" value="" style="rounded=0;whiteSpace=wrap;html=1;opacity=30;" parent="1" vertex="1">
          <mxGeometry x="40" y="80" width="640" height="720" as="geometry" />
        </mxCell>
        <mxCell id="P5bmcnCt_r2T0MBVYtTN-1" value="Messages" style="strokeWidth=1;shadow=0;dashed=0;align=center;html=1;shape=mxgraph.mockup.buttons.button;strokeColor=#666666;fontColor=#ffffff;mainText=;buttonStyle=round;fontSize=17;fontStyle=1;fillColor=#008cff;whiteSpace=wrap;" parent="1" vertex="1">
          <mxGeometry x="80" y="120" width="160" height="120" as="geometry" />
        </mxCell>
        <mxCell id="P5bmcnCt_r2T0MBVYtTN-2" value="Mail" style="strokeWidth=1;shadow=0;dashed=0;align=center;html=1;shape=mxgraph.mockup.buttons.button;strokeColor=#666666;fontColor=#ffffff;mainText=;buttonStyle=round;fontSize=17;fontStyle=1;fillColor=#008cff;whiteSpace=wrap;" parent="1" vertex="1">
          <mxGeometry x="275" y="120" width="165" height="120" as="geometry" />
        </mxCell>
        <mxCell id="P5bmcnCt_r2T0MBVYtTN-3" value="Contacts" style="strokeWidth=1;shadow=0;dashed=0;align=center;html=1;shape=mxgraph.mockup.buttons.button;strokeColor=#666666;fontColor=#ffffff;mainText=;buttonStyle=round;fontSize=17;fontStyle=1;fillColor=#008cff;whiteSpace=wrap;" parent="1" vertex="1">
          <mxGeometry x="480" y="120" width="160" height="120" as="geometry" />
        </mxCell>
        <mxCell id="P5bmcnCt_r2T0MBVYtTN-4" value="News" style="strokeWidth=1;shadow=0;dashed=0;align=center;html=1;shape=mxgraph.mockup.buttons.button;strokeColor=#666666;fontColor=#ffffff;mainText=;buttonStyle=round;fontSize=17;fontStyle=1;fillColor=#008cff;whiteSpace=wrap;" parent="1" vertex="1">
          <mxGeometry x="80" y="280" width="160" height="120" as="geometry" />
        </mxCell>
        <mxCell id="P5bmcnCt_r2T0MBVYtTN-5" value="Settings" style="strokeWidth=1;shadow=0;dashed=0;align=center;html=1;shape=mxgraph.mockup.buttons.button;strokeColor=#666666;fontColor=#ffffff;mainText=;buttonStyle=round;fontSize=17;fontStyle=1;fillColor=#008cff;whiteSpace=wrap;" parent="1" vertex="1">
          <mxGeometry x="480" y="280" width="160" height="120" as="geometry" />
        </mxCell>
        <mxCell id="P5bmcnCt_r2T0MBVYtTN-6" value="Maps" style="strokeWidth=1;shadow=0;dashed=0;align=center;html=1;shape=mxgraph.mockup.buttons.button;strokeColor=#666666;fontColor=#ffffff;mainText=;buttonStyle=round;fontSize=17;fontStyle=1;fillColor=#008cff;whiteSpace=wrap;" parent="1" vertex="1">
          <mxGeometry x="282.5" y="280" width="157.5" height="120" as="geometry" />
        </mxCell>
        <mxCell id="P5bmcnCt_r2T0MBVYtTN-9" value="app 1" style="strokeWidth=1;shadow=0;dashed=0;align=center;html=1;shape=mxgraph.mockup.buttons.button;strokeColor=#666666;fontColor=#ffffff;mainText=;buttonStyle=round;fontSize=17;fontStyle=1;fillColor=#008cff;whiteSpace=wrap;" parent="1" vertex="1">
          <mxGeometry x="81.25" y="440" width="160" height="120" as="geometry" />
        </mxCell>
        <mxCell id="P5bmcnCt_r2T0MBVYtTN-10" value="app 3" style="strokeWidth=1;shadow=0;dashed=0;align=center;html=1;shape=mxgraph.mockup.buttons.button;strokeColor=#666666;fontColor=#ffffff;mainText=;buttonStyle=round;fontSize=17;fontStyle=1;fillColor=#008cff;whiteSpace=wrap;" parent="1" vertex="1">
          <mxGeometry x="481.25" y="440" width="160" height="120" as="geometry" />
        </mxCell>
        <mxCell id="P5bmcnCt_r2T0MBVYtTN-11" value="app 2" style="strokeWidth=1;shadow=0;dashed=0;align=center;html=1;shape=mxgraph.mockup.buttons.button;strokeColor=#666666;fontColor=#ffffff;mainText=;buttonStyle=round;fontSize=17;fontStyle=1;fillColor=#008cff;whiteSpace=wrap;" parent="1" vertex="1">
          <mxGeometry x="283.75" y="440" width="157.5" height="120" as="geometry" />
        </mxCell>
        <mxCell id="P5bmcnCt_r2T0MBVYtTN-12" value="app 4" style="strokeWidth=1;shadow=0;dashed=0;align=center;html=1;shape=mxgraph.mockup.buttons.button;strokeColor=#666666;fontColor=#ffffff;mainText=;buttonStyle=round;fontSize=17;fontStyle=1;fillColor=#008cff;whiteSpace=wrap;" parent="1" vertex="1">
          <mxGeometry x="80" y="600" width="160" height="120" as="geometry" />
        </mxCell>
        <mxCell id="P5bmcnCt_r2T0MBVYtTN-13" value="app 6" style="strokeWidth=1;shadow=0;dashed=0;align=center;html=1;shape=mxgraph.mockup.buttons.button;strokeColor=#666666;fontColor=#ffffff;mainText=;buttonStyle=round;fontSize=17;fontStyle=1;fillColor=#008cff;whiteSpace=wrap;" parent="1" vertex="1">
          <mxGeometry x="480" y="600" width="160" height="120" as="geometry" />
        </mxCell>
        <mxCell id="P5bmcnCt_r2T0MBVYtTN-14" value="app 5" style="strokeWidth=1;shadow=0;dashed=0;align=center;html=1;shape=mxgraph.mockup.buttons.button;strokeColor=#666666;fontColor=#ffffff;mainText=;buttonStyle=round;fontSize=17;fontStyle=1;fillColor=#008cff;whiteSpace=wrap;" parent="1" vertex="1">
          <mxGeometry x="282.5" y="600" width="157.5" height="120" as="geometry" />
        </mxCell>
        <mxCell id="P5bmcnCt_r2T0MBVYtTN-15" value="" style="endArrow=classic;startArrow=classic;html=1;rounded=0;" parent="1" edge="1">
          <mxGeometry width="50" height="50" relative="1" as="geometry">
            <mxPoint x="37.5" y="840" as="sourcePoint" />
            <mxPoint x="677.5" y="840" as="targetPoint" />
          </mxGeometry>
        </mxCell>
        <mxCell id="P5bmcnCt_r2T0MBVYtTN-16" value="&lt;font style=&quot;font-size: 18px;&quot;&gt;screen-width&lt;/font&gt;" style="edgeLabel;html=1;align=center;verticalAlign=middle;resizable=0;points=[];" parent="P5bmcnCt_r2T0MBVYtTN-15" vertex="1" connectable="0">
          <mxGeometry x="0.225" y="2" relative="1" as="geometry">
            <mxPoint x="-42" as="offset" />
          </mxGeometry>
        </mxCell>
        <mxCell id="P5bmcnCt_r2T0MBVYtTN-18" value="" style="endArrow=classic;startArrow=classic;html=1;rounded=0;" parent="1" edge="1">
          <mxGeometry width="50" height="50" relative="1" as="geometry">
            <mxPoint x="720" y="80" as="sourcePoint" />
            <mxPoint x="720" y="800" as="targetPoint" />
          </mxGeometry>
        </mxCell>
        <mxCell id="P5bmcnCt_r2T0MBVYtTN-19" value="&lt;font style=&quot;font-size: 18px;&quot;&gt;screen-height&lt;/font&gt;" style="edgeLabel;html=1;align=center;verticalAlign=middle;resizable=0;points=[];rotation=270;" parent="P5bmcnCt_r2T0MBVYtTN-18" vertex="1" connectable="0">
          <mxGeometry x="0.225" y="2" relative="1" as="geometry">
            <mxPoint x="-2" y="-51" as="offset" />
          </mxGeometry>
        </mxCell>
        <mxCell id="P5bmcnCt_r2T0MBVYtTN-20" value="" style="endArrow=classic;startArrow=classic;html=1;rounded=0;dashed=1;dashPattern=8 8;" parent="1" edge="1">
          <mxGeometry width="50" height="50" relative="1" as="geometry">
            <mxPoint x="80" y="60" as="sourcePoint" />
            <mxPoint x="628.75" y="60" as="targetPoint" />
          </mxGeometry>
        </mxCell>
        <mxCell id="P5bmcnCt_r2T0MBVYtTN-21" value="&lt;font style=&quot;font-size: 18px;&quot;&gt;button-columns&lt;/font&gt;" style="edgeLabel;html=1;align=center;verticalAlign=middle;resizable=0;points=[];" parent="P5bmcnCt_r2T0MBVYtTN-20" vertex="1" connectable="0">
          <mxGeometry x="0.225" y="2" relative="1" as="geometry">
            <mxPoint x="-42" as="offset" />
          </mxGeometry>
        </mxCell>
        <mxCell id="P5bmcnCt_r2T0MBVYtTN-22" value="" style="endArrow=classic;startArrow=classic;html=1;rounded=0;dashed=1;dashPattern=8 8;" parent="1" edge="1">
          <mxGeometry width="50" height="50" relative="1" as="geometry">
            <mxPoint x="20" y="120" as="sourcePoint" />
            <mxPoint x="20" y="720" as="targetPoint" />
          </mxGeometry>
        </mxCell>
        <mxCell id="P5bmcnCt_r2T0MBVYtTN-23" value="&lt;font style=&quot;font-size: 18px;&quot;&gt;button-rows&lt;/font&gt;" style="edgeLabel;html=1;align=center;verticalAlign=middle;resizable=0;points=[];rotation=270;" parent="P5bmcnCt_r2T0MBVYtTN-22" vertex="1" connectable="0">
          <mxGeometry x="0.225" y="2" relative="1" as="geometry">
            <mxPoint x="-2" y="-58" as="offset" />
          </mxGeometry>
        </mxCell>
        <mxCell id="P5bmcnCt_r2T0MBVYtTN-24" value="" style="endArrow=classic;startArrow=classic;html=1;rounded=0;" parent="1" edge="1">
          <mxGeometry width="50" height="50" relative="1" as="geometry">
            <mxPoint x="80" y="740" as="sourcePoint" />
            <mxPoint x="240" y="740" as="targetPoint" />
          </mxGeometry>
        </mxCell>
        <mxCell id="P5bmcnCt_r2T0MBVYtTN-25" value="&lt;font style=&quot;font-size: 18px;&quot;&gt;button-width&lt;/font&gt;" style="edgeLabel;html=1;align=center;verticalAlign=middle;resizable=0;points=[];" parent="P5bmcnCt_r2T0MBVYtTN-24" vertex="1" connectable="0">
          <mxGeometry x="0.225" y="2" relative="1" as="geometry">
            <mxPoint x="-18" as="offset" />
          </mxGeometry>
        </mxCell>
        <mxCell id="P5bmcnCt_r2T0MBVYtTN-27" value="" style="endArrow=classic;startArrow=classic;html=1;rounded=0;" parent="1" edge="1">
          <mxGeometry width="50" height="50" relative="1" as="geometry">
            <mxPoint x="60" y="720" as="sourcePoint" />
            <mxPoint x="60" y="600" as="targetPoint" />
          </mxGeometry>
        </mxCell>
        <mxCell id="P5bmcnCt_r2T0MBVYtTN-28" value="&lt;font style=&quot;font-size: 14px;&quot;&gt;button-height&lt;/font&gt;" style="edgeLabel;html=1;align=center;verticalAlign=middle;resizable=0;points=[];rotation=270;" parent="P5bmcnCt_r2T0MBVYtTN-27" vertex="1" connectable="0">
          <mxGeometry x="0.225" y="2" relative="1" as="geometry">
            <mxPoint x="2" y="14" as="offset" />
          </mxGeometry>
        </mxCell>
        <mxCell id="P5bmcnCt_r2T0MBVYtTN-31" value="" style="endArrow=classic;startArrow=classic;html=1;rounded=0;" parent="1" edge="1">
          <mxGeometry width="50" height="50" relative="1" as="geometry">
            <mxPoint x="159.70999999999998" y="600" as="sourcePoint" />
            <mxPoint x="159.70999999999998" y="560" as="targetPoint" />
          </mxGeometry>
        </mxCell>
        <mxCell id="P5bmcnCt_r2T0MBVYtTN-32" value="`" style="edgeLabel;html=1;align=center;verticalAlign=middle;resizable=0;points=[];" parent="P5bmcnCt_r2T0MBVYtTN-31" vertex="1" connectable="0">
          <mxGeometry x="0.1" y="4" relative="1" as="geometry">
            <mxPoint as="offset" />
          </mxGeometry>
        </mxCell>
        <mxCell id="P5bmcnCt_r2T0MBVYtTN-33" value="gap-height" style="edgeLabel;html=1;align=center;verticalAlign=middle;resizable=0;points=[];" parent="P5bmcnCt_r2T0MBVYtTN-31" vertex="1" connectable="0">
          <mxGeometry x="0.0786" y="-1" relative="1" as="geometry">
            <mxPoint as="offset" />
          </mxGeometry>
        </mxCell>
        <mxCell id="P5bmcnCt_r2T0MBVYtTN-40" value="" style="endArrow=classic;startArrow=classic;html=1;rounded=0;" parent="1" edge="1">
          <mxGeometry width="50" height="50" relative="1" as="geometry">
            <mxPoint x="241.25" y="680" as="sourcePoint" />
            <mxPoint x="281.25" y="680" as="targetPoint" />
          </mxGeometry>
        </mxCell>
        <mxCell id="P5bmcnCt_r2T0MBVYtTN-41" value="&lt;font style=&quot;font-size: 12px;&quot;&gt;gap-width&lt;/font&gt;" style="edgeLabel;html=1;align=center;verticalAlign=middle;resizable=0;points=[];rotation=270;" parent="P5bmcnCt_r2T0MBVYtTN-40" vertex="1" connectable="0">
          <mxGeometry x="0.225" y="2" relative="1" as="geometry">
            <mxPoint x="-5" as="offset" />
          </mxGeometry>
        </mxCell>
        <mxCell id="NyNmHIbUeNZVRMLUWSfV-13" value="" style="group" parent="1" vertex="1" connectable="0">
          <mxGeometry x="746" y="431" width="80" height="188" as="geometry" />
        </mxCell>
        <mxCell id="NyNmHIbUeNZVRMLUWSfV-14" value="" style="group" parent="NyNmHIbUeNZVRMLUWSfV-13" vertex="1" connectable="0">
          <mxGeometry width="80" height="80" as="geometry" />
        </mxCell>
        <mxCell id="NyNmHIbUeNZVRMLUWSfV-15" value="" style="ellipse;whiteSpace=wrap;html=1;aspect=fixed;" parent="NyNmHIbUeNZVRMLUWSfV-14" vertex="1">
          <mxGeometry width="80" height="80" as="geometry" />
        </mxCell>
        <mxCell id="NyNmHIbUeNZVRMLUWSfV-16" value="" style="shape=flexArrow;endArrow=classic;html=1;rounded=0;fillColor=#000000;" parent="NyNmHIbUeNZVRMLUWSfV-14" edge="1">
          <mxGeometry width="50" height="50" relative="1" as="geometry">
            <mxPoint x="39.5" y="65" as="sourcePoint" />
            <mxPoint x="39.5" y="15" as="targetPoint" />
          </mxGeometry>
        </mxCell>
        <mxCell id="NyNmHIbUeNZVRMLUWSfV-17" value="" style="group" parent="NyNmHIbUeNZVRMLUWSfV-13" vertex="1" connectable="0">
          <mxGeometry y="108" width="80" height="80" as="geometry" />
        </mxCell>
        <mxCell id="NyNmHIbUeNZVRMLUWSfV-18" value="" style="ellipse;whiteSpace=wrap;html=1;aspect=fixed;direction=south;" parent="NyNmHIbUeNZVRMLUWSfV-17" vertex="1">
          <mxGeometry width="80" height="80" as="geometry" />
        </mxCell>
        <mxCell id="NyNmHIbUeNZVRMLUWSfV-19" value="" style="shape=flexArrow;endArrow=classic;html=1;rounded=0;fillColor=#000000;" parent="NyNmHIbUeNZVRMLUWSfV-17" edge="1">
          <mxGeometry width="50" height="50" relative="1" as="geometry">
            <mxPoint x="39.5" y="15" as="sourcePoint" />
            <mxPoint x="39.5" y="65" as="targetPoint" />
          </mxGeometry>
        </mxCell>
        <mxCell id="NyNmHIbUeNZVRMLUWSfV-20" value="" style="group" parent="1" vertex="1" connectable="0">
          <mxGeometry x="740" y="210" width="80" height="80" as="geometry" />
        </mxCell>
        <mxCell id="NyNmHIbUeNZVRMLUWSfV-21" value="" style="ellipse;whiteSpace=wrap;html=1;aspect=fixed;" parent="NyNmHIbUeNZVRMLUWSfV-20" vertex="1">
          <mxGeometry width="80" height="80" as="geometry" />
        </mxCell>
        <mxCell id="NyNmHIbUeNZVRMLUWSfV-22" value="" style="shape=cross;whiteSpace=wrap;html=1;fillColor=#000000;" parent="NyNmHIbUeNZVRMLUWSfV-20" vertex="1">
          <mxGeometry x="20" y="18" width="40" height="44" as="geometry" />
        </mxCell>
        <mxCell id="NyNmHIbUeNZVRMLUWSfV-23" value="" style="ellipse;whiteSpace=wrap;html=1;aspect=fixed;fillColor=#B3B3B3;" parent="1" vertex="1">
          <mxGeometry x="740" y="315" width="80" height="80" as="geometry" />
        </mxCell>
        <mxCell id="NyNmHIbUeNZVRMLUWSfV-24" value="" style="rounded=0;whiteSpace=wrap;html=1;fillColor=#000000;" parent="1" vertex="1">
          <mxGeometry x="761" y="351" width="39" height="12" as="geometry" />
        </mxCell>
      </root>
    </mxGraphModel>
  </diagram>
  <diagram id="VWJtUHMU2M4bDkngb9Zi" name="button calc">
    <mxGraphModel dx="1426" dy="849" grid="1" gridSize="10" guides="1" tooltips="1" connect="1" arrows="1" fold="1" page="1" pageScale="1" pageWidth="850" pageHeight="1100" math="0" shadow="0">
      <root>
        <mxCell id="0" />
        <mxCell id="1" parent="0" />
        <mxCell id="0cf20ZVunS0J-2t0ALKh-1" value="bc = button-columns    &#xa;br = button-rows       &#xa;bh = button-height     &#xa;bw = button-width      &#xa;gh = gap-height        &#xa;gp = gap-percentage&#xa;gw = gap-width&#xa;sh = screen-height&#xa;sw = screen-width&#xa;&#xa;&#xa;bh = bw&#xa;gw = gh = bw * gp&#xa;sw = bc * bw + (bc + 1) * gw&#xa;   = bc * bw + (bc + 1) * bw * gp&#xa;   = bc * bw + bc * bw * gp + bw * gp&#xa;   = bc * (bw + bw * gp) + bw * gp&#xa;sw - bw * gp = bc * bw * (gp + 1)&#xa;bc = (sw - bw * gp) / (bw * (gp + 1))&#xa;&#xa;&#xa;sw = 16&#xa;bw = 4&#xa;gp = 0.25&#xa;bc = (16 - 4 * 0.25) / (4 * 1.25)&#xa;   = (16 - 1) / 5&#xa;   = 15 / 5&#xa;   = 3" style="text;whiteSpace=wrap;fontFamily=Lucida Console;" parent="1" vertex="1">
          <mxGeometry x="50" y="400" width="320" height="430" as="geometry" />
        </mxCell>
        <mxCell id="0cf20ZVunS0J-2t0ALKh-2" value="br = button-columns    &#xa;br = button-rows       &#xa;bh = button-height     &#xa;bh = button-width      &#xa;gh = gap-height        &#xa;gp = gap-percentage&#xa;gw = gap-width&#xa;sh = screen-height&#xa;sh = screen-width&#xa;&#xa;&#xa;bh = bh&#xa;gw = gh = bh * gp&#xa;sw = br * bh + (br + 1) * gw&#xa;   = br * bh + (br + 1) * bh * gp&#xa;   = br * bh + br * bh * gp + bh * gp&#xa;   = br * (bh + bh * gp) + bh * gp&#xa;sw - bh * gp = br * bh * (gp + 1)&#xa;br = (sw - bh * gp) / (bh * (gp + 1))&#xa;&#xa;&#xa;sw = 18&#xa;bh = 3&#xa;gp = 0.25&#xa;br = (18 - 3 * 0.25) / (3 * 1.25)&#xa;   = (18 - 0.75) / 3.75&#xa;   = 17.25 / 3.75&#xa;   = 4.6" style="text;whiteSpace=wrap;fontFamily=Lucida Console;" parent="1" vertex="1">
          <mxGeometry x="425" y="400" width="295" height="430" as="geometry" />
        </mxCell>
      </root>
    </mxGraphModel>
  </diagram>
  <diagram id="Dc79TZ4oFMiQx0SJVZZh" name="buttons">
    <mxGraphModel dx="1426" dy="849" grid="0" gridSize="10" guides="1" tooltips="1" connect="1" arrows="1" fold="1" page="1" pageScale="1" pageWidth="1100" pageHeight="850" math="0" shadow="0">
      <root>
        <mxCell id="0" />
        <mxCell id="1" parent="0" />
        <mxCell id="uLDYfGS9BdWbdLWny1Mr-7" value="" style="group" parent="1" vertex="1" connectable="0">
          <mxGeometry x="985" y="378" width="80" height="188" as="geometry" />
        </mxCell>
        <mxCell id="uLDYfGS9BdWbdLWny1Mr-8" value="" style="group" parent="uLDYfGS9BdWbdLWny1Mr-7" vertex="1" connectable="0">
          <mxGeometry width="80" height="80" as="geometry" />
        </mxCell>
        <mxCell id="uLDYfGS9BdWbdLWny1Mr-9" value="" style="ellipse;whiteSpace=wrap;html=1;aspect=fixed;" parent="uLDYfGS9BdWbdLWny1Mr-8" vertex="1">
          <mxGeometry width="80" height="80" as="geometry" />
        </mxCell>
        <mxCell id="uLDYfGS9BdWbdLWny1Mr-10" value="" style="shape=flexArrow;endArrow=classic;html=1;rounded=0;fillColor=#000000;" parent="uLDYfGS9BdWbdLWny1Mr-8" edge="1">
          <mxGeometry width="50" height="50" relative="1" as="geometry">
            <mxPoint x="39.5" y="65" as="sourcePoint" />
            <mxPoint x="39.5" y="15" as="targetPoint" />
          </mxGeometry>
        </mxCell>
        <mxCell id="uLDYfGS9BdWbdLWny1Mr-11" value="" style="group" parent="uLDYfGS9BdWbdLWny1Mr-7" vertex="1" connectable="0">
          <mxGeometry y="108" width="80" height="80" as="geometry" />
        </mxCell>
        <mxCell id="uLDYfGS9BdWbdLWny1Mr-12" value="" style="ellipse;whiteSpace=wrap;html=1;aspect=fixed;direction=south;" parent="uLDYfGS9BdWbdLWny1Mr-11" vertex="1">
          <mxGeometry width="80" height="80" as="geometry" />
        </mxCell>
        <mxCell id="uLDYfGS9BdWbdLWny1Mr-13" value="" style="shape=flexArrow;endArrow=classic;html=1;rounded=0;fillColor=#000000;" parent="uLDYfGS9BdWbdLWny1Mr-11" edge="1">
          <mxGeometry width="50" height="50" relative="1" as="geometry">
            <mxPoint x="39.5" y="15" as="sourcePoint" />
            <mxPoint x="39.5" y="65" as="targetPoint" />
          </mxGeometry>
        </mxCell>
        <mxCell id="uLDYfGS9BdWbdLWny1Mr-14" value="" style="group;fillColor=default;container=0;" parent="1" vertex="1" connectable="0">
          <mxGeometry x="983" y="160" width="80" height="188" as="geometry" />
        </mxCell>
        <mxCell id="uLDYfGS9BdWbdLWny1Mr-21" value="" style="shape=flexArrow;endArrow=classic;html=1;rounded=0;endWidth=26;endSize=10;" parent="1" edge="1">
          <mxGeometry width="50" height="50" relative="1" as="geometry">
            <mxPoint x="918" y="347" as="sourcePoint" />
            <mxPoint x="985" y="394" as="targetPoint" />
          </mxGeometry>
        </mxCell>
        <mxCell id="uLDYfGS9BdWbdLWny1Mr-22" value="Messages" style="strokeWidth=1;shadow=0;dashed=0;align=center;html=1;shape=mxgraph.mockup.buttons.button;strokeColor=#666666;fontColor=#ffffff;mainText=;buttonStyle=round;fontSize=17;fontStyle=1;fillColor=#008cff;whiteSpace=wrap;" parent="1" vertex="1">
          <mxGeometry x="76" y="214" width="229" height="133" as="geometry" />
        </mxCell>
        <mxCell id="uLDYfGS9BdWbdLWny1Mr-23" value="Mail" style="strokeWidth=1;shadow=0;dashed=0;align=center;html=1;shape=mxgraph.mockup.buttons.button;strokeColor=#666666;fontColor=#ffffff;mainText=;buttonStyle=round;fontSize=17;fontStyle=1;fillColor=#008cff;whiteSpace=wrap;" parent="1" vertex="1">
          <mxGeometry x="365" y="214" width="229" height="133" as="geometry" />
        </mxCell>
        <mxCell id="uLDYfGS9BdWbdLWny1Mr-24" value="Contacts" style="strokeWidth=1;shadow=0;dashed=0;align=center;html=1;shape=mxgraph.mockup.buttons.button;strokeColor=#666666;fontColor=#ffffff;mainText=;buttonStyle=round;fontSize=17;fontStyle=1;fillColor=#008cff;whiteSpace=wrap;" parent="1" vertex="1">
          <mxGeometry x="653" y="214" width="229" height="133" as="geometry" />
        </mxCell>
        <mxCell id="uLDYfGS9BdWbdLWny1Mr-25" value="News" style="strokeWidth=1;shadow=0;dashed=0;align=center;html=1;shape=mxgraph.mockup.buttons.button;strokeColor=#666666;fontColor=#ffffff;mainText=;buttonStyle=round;fontSize=17;fontStyle=1;fillColor=#008cff;whiteSpace=wrap;" parent="1" vertex="1">
          <mxGeometry x="76" y="400" width="229" height="133" as="geometry" />
        </mxCell>
        <mxCell id="uLDYfGS9BdWbdLWny1Mr-26" value="Maps" style="strokeWidth=1;shadow=0;dashed=0;align=center;html=1;shape=mxgraph.mockup.buttons.button;strokeColor=#666666;fontColor=#ffffff;mainText=;buttonStyle=round;fontSize=17;fontStyle=1;fillColor=#008cff;whiteSpace=wrap;" parent="1" vertex="1">
          <mxGeometry x="365" y="400" width="229" height="133" as="geometry" />
        </mxCell>
        <mxCell id="uLDYfGS9BdWbdLWny1Mr-27" value="Settings" style="strokeWidth=1;shadow=0;dashed=0;align=center;html=1;shape=mxgraph.mockup.buttons.button;strokeColor=#666666;fontColor=#ffffff;mainText=;buttonStyle=round;fontSize=17;fontStyle=1;fillColor=#008cff;whiteSpace=wrap;" parent="1" vertex="1">
          <mxGeometry x="653" y="395" width="229" height="133" as="geometry" />
        </mxCell>
        <mxCell id="uLDYfGS9BdWbdLWny1Mr-18" value="" style="group" parent="1" vertex="1" connectable="0">
          <mxGeometry x="983" y="160" width="80" height="80" as="geometry" />
        </mxCell>
        <mxCell id="uLDYfGS9BdWbdLWny1Mr-19" value="" style="ellipse;whiteSpace=wrap;html=1;aspect=fixed;" parent="uLDYfGS9BdWbdLWny1Mr-18" vertex="1">
          <mxGeometry width="80" height="80" as="geometry" />
        </mxCell>
        <mxCell id="uLDYfGS9BdWbdLWny1Mr-20" value="" style="shape=cross;whiteSpace=wrap;html=1;fillColor=#000000;" parent="uLDYfGS9BdWbdLWny1Mr-18" vertex="1">
          <mxGeometry x="20" y="18" width="40" height="44" as="geometry" />
        </mxCell>
        <mxCell id="AlaWXcsyv7g6KsVGeCkd-2" value="" style="ellipse;whiteSpace=wrap;html=1;aspect=fixed;fillColor=#B3B3B3;" parent="1" vertex="1">
          <mxGeometry x="983" y="267" width="80" height="80" as="geometry" />
        </mxCell>
        <mxCell id="uLDYfGS9BdWbdLWny1Mr-17" value="" style="rounded=0;whiteSpace=wrap;html=1;fillColor=#000000;" parent="1" vertex="1">
          <mxGeometry x="1004" y="303" width="39" height="12" as="geometry" />
        </mxCell>
        <mxCell id="vihLD84a-UeoiKll87-H-1" value="" style="strokeWidth=1;shadow=0;dashed=0;align=center;html=1;shape=mxgraph.mockup.buttons.button;strokeColor=#666666;fontColor=#ffffff;mainText=;buttonStyle=round;fontSize=17;fontStyle=1;fillColor=#FFD966;whiteSpace=wrap;" vertex="1" parent="1">
          <mxGeometry x="106" y="643" width="240" height="133" as="geometry" />
        </mxCell>
        <mxCell id="vihLD84a-UeoiKll87-H-2" value="" style="group" vertex="1" connectable="0" parent="1">
          <mxGeometry x="171" y="573" width="280" height="170" as="geometry" />
        </mxCell>
        <mxCell id="vihLD84a-UeoiKll87-H-3" value="" style="strokeWidth=1;shadow=0;dashed=0;align=center;html=1;shape=mxgraph.mockup.buttons.button;strokeColor=#666666;fontColor=#ffffff;mainText=;buttonStyle=round;fontSize=17;fontStyle=1;fillColor=#008cff;whiteSpace=wrap;opacity=60;" vertex="1" parent="vihLD84a-UeoiKll87-H-2">
          <mxGeometry x="20" y="21" width="240" height="133" as="geometry" />
        </mxCell>
        <mxCell id="vihLD84a-UeoiKll87-H-4" value="" style="endArrow=none;html=1;rounded=0;" edge="1" parent="vihLD84a-UeoiKll87-H-2">
          <mxGeometry width="50" height="50" relative="1" as="geometry">
            <mxPoint x="140" y="170" as="sourcePoint" />
            <mxPoint x="140" as="targetPoint" />
          </mxGeometry>
        </mxCell>
        <mxCell id="vihLD84a-UeoiKll87-H-5" value="" style="endArrow=none;html=1;rounded=0;" edge="1" parent="vihLD84a-UeoiKll87-H-2">
          <mxGeometry width="50" height="50" relative="1" as="geometry">
            <mxPoint y="90" as="sourcePoint" />
            <mxPoint x="280" y="90" as="targetPoint" />
          </mxGeometry>
        </mxCell>
      </root>
    </mxGraphModel>
  </diagram>
  <diagram id="VvW3XOTnxxspr7YyFQbA" name="calc">
    <mxGraphModel dx="400" dy="198" grid="1" gridSize="10" guides="1" tooltips="1" connect="1" arrows="1" fold="1" page="1" pageScale="1" pageWidth="850" pageHeight="1100" math="0" shadow="0">
      <root>
        <mxCell id="0" />
        <mxCell id="1" parent="0" />
        <mxCell id="C82B5LE44bZ4xkrKvn5z-1" value="" style="rounded=0;whiteSpace=wrap;html=1;opacity=30;" vertex="1" parent="1">
          <mxGeometry x="40" y="80" width="640" height="720" as="geometry" />
        </mxCell>
        <mxCell id="C82B5LE44bZ4xkrKvn5z-2" value="0,0" style="strokeWidth=1;shadow=0;dashed=0;align=center;html=1;shape=mxgraph.mockup.buttons.button;strokeColor=#666666;fontColor=#ffffff;mainText=;buttonStyle=round;fontSize=17;fontStyle=1;fillColor=#008cff;whiteSpace=wrap;" vertex="1" parent="1">
          <mxGeometry x="80" y="120" width="160" height="120" as="geometry" />
        </mxCell>
        <mxCell id="C82B5LE44bZ4xkrKvn5z-3" value="1,0" style="strokeWidth=1;shadow=0;dashed=0;align=center;html=1;shape=mxgraph.mockup.buttons.button;strokeColor=#666666;fontColor=#ffffff;mainText=;buttonStyle=round;fontSize=17;fontStyle=1;fillColor=#008cff;whiteSpace=wrap;" vertex="1" parent="1">
          <mxGeometry x="275" y="120" width="165" height="120" as="geometry" />
        </mxCell>
        <mxCell id="C82B5LE44bZ4xkrKvn5z-4" value="2,0" style="strokeWidth=1;shadow=0;dashed=0;align=center;html=1;shape=mxgraph.mockup.buttons.button;strokeColor=#666666;fontColor=#ffffff;mainText=;buttonStyle=round;fontSize=17;fontStyle=1;fillColor=#008cff;whiteSpace=wrap;" vertex="1" parent="1">
          <mxGeometry x="480" y="120" width="160" height="120" as="geometry" />
        </mxCell>
        <mxCell id="C82B5LE44bZ4xkrKvn5z-5" value="0,1" style="strokeWidth=1;shadow=0;dashed=0;align=center;html=1;shape=mxgraph.mockup.buttons.button;strokeColor=#666666;fontColor=#ffffff;mainText=;buttonStyle=round;fontSize=17;fontStyle=1;fillColor=#008cff;whiteSpace=wrap;" vertex="1" parent="1">
          <mxGeometry x="80" y="280" width="160" height="120" as="geometry" />
        </mxCell>
        <mxCell id="C82B5LE44bZ4xkrKvn5z-6" value="2,1" style="strokeWidth=1;shadow=0;dashed=0;align=center;html=1;shape=mxgraph.mockup.buttons.button;strokeColor=#666666;fontColor=#ffffff;mainText=;buttonStyle=round;fontSize=17;fontStyle=1;fillColor=#008cff;whiteSpace=wrap;" vertex="1" parent="1">
          <mxGeometry x="480" y="280" width="160" height="120" as="geometry" />
        </mxCell>
        <mxCell id="C82B5LE44bZ4xkrKvn5z-7" value="i,j" style="strokeWidth=1;shadow=0;dashed=0;align=center;html=1;shape=mxgraph.mockup.buttons.button;strokeColor=#666666;fontColor=#ffffff;mainText=;buttonStyle=round;fontSize=17;fontStyle=1;fillColor=#008cff;whiteSpace=wrap;" vertex="1" parent="1">
          <mxGeometry x="282.5" y="280" width="157.5" height="120" as="geometry" />
        </mxCell>
        <mxCell id="C82B5LE44bZ4xkrKvn5z-8" value="0,2" style="strokeWidth=1;shadow=0;dashed=0;align=center;html=1;shape=mxgraph.mockup.buttons.button;strokeColor=#666666;fontColor=#ffffff;mainText=;buttonStyle=round;fontSize=17;fontStyle=1;fillColor=#008cff;whiteSpace=wrap;" vertex="1" parent="1">
          <mxGeometry x="81.25" y="440" width="160" height="120" as="geometry" />
        </mxCell>
        <mxCell id="C82B5LE44bZ4xkrKvn5z-9" value="2,2" style="strokeWidth=1;shadow=0;dashed=0;align=center;html=1;shape=mxgraph.mockup.buttons.button;strokeColor=#666666;fontColor=#ffffff;mainText=;buttonStyle=round;fontSize=17;fontStyle=1;fillColor=#008cff;whiteSpace=wrap;" vertex="1" parent="1">
          <mxGeometry x="481.25" y="440" width="160" height="120" as="geometry" />
        </mxCell>
        <mxCell id="C82B5LE44bZ4xkrKvn5z-10" value="1,2" style="strokeWidth=1;shadow=0;dashed=0;align=center;html=1;shape=mxgraph.mockup.buttons.button;strokeColor=#666666;fontColor=#ffffff;mainText=;buttonStyle=round;fontSize=17;fontStyle=1;fillColor=#008cff;whiteSpace=wrap;" vertex="1" parent="1">
          <mxGeometry x="283.75" y="440" width="157.5" height="120" as="geometry" />
        </mxCell>
        <mxCell id="C82B5LE44bZ4xkrKvn5z-11" value="0,3" style="strokeWidth=1;shadow=0;dashed=0;align=center;html=1;shape=mxgraph.mockup.buttons.button;strokeColor=#666666;fontColor=#ffffff;mainText=;buttonStyle=round;fontSize=17;fontStyle=1;fillColor=#008cff;whiteSpace=wrap;" vertex="1" parent="1">
          <mxGeometry x="80" y="600" width="160" height="120" as="geometry" />
        </mxCell>
        <mxCell id="C82B5LE44bZ4xkrKvn5z-12" value="2,3" style="strokeWidth=1;shadow=0;dashed=0;align=center;html=1;shape=mxgraph.mockup.buttons.button;strokeColor=#666666;fontColor=#ffffff;mainText=;buttonStyle=round;fontSize=17;fontStyle=1;fillColor=#008cff;whiteSpace=wrap;" vertex="1" parent="1">
          <mxGeometry x="480" y="600" width="160" height="120" as="geometry" />
        </mxCell>
        <mxCell id="C82B5LE44bZ4xkrKvn5z-13" value="1,3" style="strokeWidth=1;shadow=0;dashed=0;align=center;html=1;shape=mxgraph.mockup.buttons.button;strokeColor=#666666;fontColor=#ffffff;mainText=;buttonStyle=round;fontSize=17;fontStyle=1;fillColor=#008cff;whiteSpace=wrap;" vertex="1" parent="1">
          <mxGeometry x="282.5" y="600" width="157.5" height="120" as="geometry" />
        </mxCell>
        <mxCell id="C82B5LE44bZ4xkrKvn5z-14" value="" style="endArrow=classic;startArrow=classic;html=1;rounded=0;" edge="1" parent="1">
          <mxGeometry width="50" height="50" relative="1" as="geometry">
            <mxPoint x="37.5" y="850" as="sourcePoint" />
            <mxPoint x="677.5" y="850" as="targetPoint" />
          </mxGeometry>
        </mxCell>
        <mxCell id="C82B5LE44bZ4xkrKvn5z-15" value="&lt;font style=&quot;font-size: 18px;&quot;&gt;screen-width &lt;b&gt;sw&lt;/b&gt;&lt;/font&gt;" style="edgeLabel;html=1;align=center;verticalAlign=middle;resizable=0;points=[];" vertex="1" connectable="0" parent="C82B5LE44bZ4xkrKvn5z-14">
          <mxGeometry x="0.225" y="2" relative="1" as="geometry">
            <mxPoint x="-42" as="offset" />
          </mxGeometry>
        </mxCell>
        <mxCell id="C82B5LE44bZ4xkrKvn5z-16" value="" style="endArrow=classic;startArrow=classic;html=1;rounded=0;" edge="1" parent="1">
          <mxGeometry width="50" height="50" relative="1" as="geometry">
            <mxPoint x="760" y="80" as="sourcePoint" />
            <mxPoint x="760" y="800" as="targetPoint" />
          </mxGeometry>
        </mxCell>
        <mxCell id="C82B5LE44bZ4xkrKvn5z-17" value="&lt;font style=&quot;font-size: 18px;&quot;&gt;screen-height &lt;b&gt;sh&lt;/b&gt;&lt;/font&gt;" style="edgeLabel;html=1;align=center;verticalAlign=middle;resizable=0;points=[];rotation=270;" vertex="1" connectable="0" parent="C82B5LE44bZ4xkrKvn5z-16">
          <mxGeometry x="0.225" y="2" relative="1" as="geometry">
            <mxPoint x="-2" y="-51" as="offset" />
          </mxGeometry>
        </mxCell>
        <mxCell id="C82B5LE44bZ4xkrKvn5z-18" value="" style="endArrow=classic;startArrow=classic;html=1;rounded=0;dashed=1;dashPattern=8 8;" edge="1" parent="1">
          <mxGeometry width="50" height="50" relative="1" as="geometry">
            <mxPoint x="80" y="60" as="sourcePoint" />
            <mxPoint x="628.75" y="60" as="targetPoint" />
          </mxGeometry>
        </mxCell>
        <mxCell id="C82B5LE44bZ4xkrKvn5z-19" value="&lt;font style=&quot;font-size: 18px;&quot;&gt;columns &lt;b&gt;c&lt;/b&gt;&lt;/font&gt;" style="edgeLabel;html=1;align=center;verticalAlign=middle;resizable=0;points=[];" vertex="1" connectable="0" parent="C82B5LE44bZ4xkrKvn5z-18">
          <mxGeometry x="0.225" y="2" relative="1" as="geometry">
            <mxPoint x="-42" as="offset" />
          </mxGeometry>
        </mxCell>
        <mxCell id="C82B5LE44bZ4xkrKvn5z-20" value="" style="endArrow=classic;startArrow=classic;html=1;rounded=0;dashed=1;dashPattern=8 8;" edge="1" parent="1">
          <mxGeometry width="50" height="50" relative="1" as="geometry">
            <mxPoint x="20" y="120" as="sourcePoint" />
            <mxPoint x="20" y="720" as="targetPoint" />
          </mxGeometry>
        </mxCell>
        <mxCell id="C82B5LE44bZ4xkrKvn5z-21" value="&lt;font style=&quot;font-size: 18px;&quot;&gt;rows &lt;b&gt;r&lt;/b&gt;&lt;/font&gt;" style="edgeLabel;html=1;align=center;verticalAlign=middle;resizable=0;points=[];rotation=270;" vertex="1" connectable="0" parent="C82B5LE44bZ4xkrKvn5z-20">
          <mxGeometry x="0.225" y="2" relative="1" as="geometry">
            <mxPoint x="-2" y="-58" as="offset" />
          </mxGeometry>
        </mxCell>
        <mxCell id="C82B5LE44bZ4xkrKvn5z-22" value="" style="endArrow=classic;startArrow=classic;html=1;rounded=0;" edge="1" parent="1">
          <mxGeometry width="50" height="50" relative="1" as="geometry">
            <mxPoint x="80" y="740" as="sourcePoint" />
            <mxPoint x="240" y="740" as="targetPoint" />
          </mxGeometry>
        </mxCell>
        <mxCell id="C82B5LE44bZ4xkrKvn5z-23" value="&lt;font style=&quot;font-size: 18px;&quot;&gt;button-width &lt;b&gt;bw&lt;/b&gt;&lt;/font&gt;" style="edgeLabel;html=1;align=center;verticalAlign=middle;resizable=0;points=[];" vertex="1" connectable="0" parent="C82B5LE44bZ4xkrKvn5z-22">
          <mxGeometry x="0.225" y="2" relative="1" as="geometry">
            <mxPoint x="-18" as="offset" />
          </mxGeometry>
        </mxCell>
        <mxCell id="C82B5LE44bZ4xkrKvn5z-24" value="" style="endArrow=classic;startArrow=classic;html=1;rounded=0;" edge="1" parent="1">
          <mxGeometry width="50" height="50" relative="1" as="geometry">
            <mxPoint x="60" y="720" as="sourcePoint" />
            <mxPoint x="60" y="600" as="targetPoint" />
          </mxGeometry>
        </mxCell>
        <mxCell id="C82B5LE44bZ4xkrKvn5z-25" value="&lt;font style=&quot;font-size: 12px;&quot;&gt;button-height &lt;b style=&quot;&quot;&gt;bh&lt;/b&gt;&lt;/font&gt;" style="edgeLabel;html=1;align=center;verticalAlign=middle;resizable=0;points=[];rotation=270;" vertex="1" connectable="0" parent="C82B5LE44bZ4xkrKvn5z-24">
          <mxGeometry x="0.225" y="2" relative="1" as="geometry">
            <mxPoint x="2" y="14" as="offset" />
          </mxGeometry>
        </mxCell>
        <mxCell id="C82B5LE44bZ4xkrKvn5z-26" value="" style="endArrow=classic;startArrow=classic;html=1;rounded=0;" edge="1" parent="1">
          <mxGeometry width="50" height="50" relative="1" as="geometry">
            <mxPoint x="159.70999999999998" y="600" as="sourcePoint" />
            <mxPoint x="159.70999999999998" y="560" as="targetPoint" />
          </mxGeometry>
        </mxCell>
        <mxCell id="C82B5LE44bZ4xkrKvn5z-27" value="`" style="edgeLabel;html=1;align=center;verticalAlign=middle;resizable=0;points=[];" vertex="1" connectable="0" parent="C82B5LE44bZ4xkrKvn5z-26">
          <mxGeometry x="0.1" y="4" relative="1" as="geometry">
            <mxPoint as="offset" />
          </mxGeometry>
        </mxCell>
        <mxCell id="C82B5LE44bZ4xkrKvn5z-28" value="gap-height &lt;b&gt;gh&lt;/b&gt;" style="edgeLabel;html=1;align=center;verticalAlign=middle;resizable=0;points=[];" vertex="1" connectable="0" parent="C82B5LE44bZ4xkrKvn5z-26">
          <mxGeometry x="0.0786" y="-1" relative="1" as="geometry">
            <mxPoint as="offset" />
          </mxGeometry>
        </mxCell>
        <mxCell id="C82B5LE44bZ4xkrKvn5z-29" value="" style="endArrow=classic;startArrow=classic;html=1;rounded=0;" edge="1" parent="1">
          <mxGeometry width="50" height="50" relative="1" as="geometry">
            <mxPoint x="241.25" y="680" as="sourcePoint" />
            <mxPoint x="281.25" y="680" as="targetPoint" />
          </mxGeometry>
        </mxCell>
        <mxCell id="C82B5LE44bZ4xkrKvn5z-30" value="&lt;font style=&quot;font-size: 12px;&quot;&gt;gap-width &lt;b&gt;gw&lt;/b&gt;&lt;/font&gt;" style="edgeLabel;html=1;align=center;verticalAlign=middle;resizable=0;points=[];rotation=270;" vertex="1" connectable="0" parent="C82B5LE44bZ4xkrKvn5z-29">
          <mxGeometry x="0.225" y="2" relative="1" as="geometry">
            <mxPoint x="-5" as="offset" />
          </mxGeometry>
        </mxCell>
        <mxCell id="C82B5LE44bZ4xkrKvn5z-48" value="" style="endArrow=classic;startArrow=classic;html=1;rounded=0;" edge="1" parent="1">
          <mxGeometry width="50" height="50" relative="1" as="geometry">
            <mxPoint x="40" y="820" as="sourcePoint" />
            <mxPoint x="280" y="820" as="targetPoint" />
          </mxGeometry>
        </mxCell>
        <mxCell id="C82B5LE44bZ4xkrKvn5z-49" value="&lt;font style=&quot;font-size: 10px;&quot;&gt;gw + i * (bw + gw)&lt;br&gt;bw * (gp + i * (1 + gp))&lt;/font&gt;" style="edgeLabel;html=1;align=center;verticalAlign=middle;resizable=0;points=[];" vertex="1" connectable="0" parent="C82B5LE44bZ4xkrKvn5z-48">
          <mxGeometry x="0.225" y="2" relative="1" as="geometry">
            <mxPoint x="-18" as="offset" />
          </mxGeometry>
        </mxCell>
        <mxCell id="C82B5LE44bZ4xkrKvn5z-50" value="" style="endArrow=classic;startArrow=classic;html=1;rounded=0;" edge="1" parent="1">
          <mxGeometry width="50" height="50" relative="1" as="geometry">
            <mxPoint x="720" y="80" as="sourcePoint" />
            <mxPoint x="720" y="280" as="targetPoint" />
          </mxGeometry>
        </mxCell>
        <mxCell id="C82B5LE44bZ4xkrKvn5z-51" value="&lt;font style=&quot;font-size: 10px;&quot;&gt;gh + i * (bh + gh)&lt;br&gt;gh * (1 + i) + i * bh&lt;/font&gt;" style="edgeLabel;html=1;align=center;verticalAlign=middle;resizable=0;points=[];" vertex="1" connectable="0" parent="C82B5LE44bZ4xkrKvn5z-50">
          <mxGeometry x="0.225" y="2" relative="1" as="geometry">
            <mxPoint x="-18" as="offset" />
          </mxGeometry>
        </mxCell>
      </root>
    </mxGraphModel>
  </diagram>
</mxfile>
